<svg width="20" height="20" viewBox="0 0 20 20" fill="none" xmlns="http://www.w3.org/2000/svg">
<path fill-rule="evenodd" clip-rule="evenodd" d="M11.3084 15.3271C11.3084 16.0497 10.7226 16.6355 10 16.6355C9.27738 16.6355 8.69159 16.0497 8.69159 15.3271C8.69159 14.6045 9.27738 14.0187 10 14.0187V10.6542C7.41923 10.6542 5.3271 12.7463 5.3271 15.3271C5.3271 17.9079 7.41923 20 10 20C12.5808 20 14.6729 17.9079 14.6729 15.3271H11.3084Z" fill="black"/>
<path fill-rule="evenodd" clip-rule="evenodd" d="M15.3271 8.6916C16.0497 8.6916 16.6355 9.2774 16.6355 10C16.6355 10.7226 16.0497 11.3084 15.3271 11.3084C14.6045 11.3084 14.0187 10.7226 14.0187 10H10.6542C10.6542 12.5808 12.7463 14.6729 15.3271 14.6729C17.9079 14.6729 20 12.5808 20 10C20 7.4192 17.9079 5.3271 15.3271 5.3271L15.3271 8.6916Z" fill="black"/>
<path fill-rule="evenodd" clip-rule="evenodd" d="M8.6916 4.6729C8.6916 3.9503 9.2774 3.3645 10 3.3645C10.7226 3.3645 11.3084 3.9503 11.3084 4.6729C11.3084 5.3955 10.7226 5.9813 10 5.9813V9.3458C12.5808 9.3458 14.6729 7.2537 14.6729 4.6729C14.6729 2.0921 12.5808 0 10 0C7.4192 0 5.3271 2.0921 5.3271 4.6729H8.6916Z" fill="black"/>
<path fill-rule="evenodd" clip-rule="evenodd" d="M4.6729 11.3084C3.9503 11.3084 3.3645 10.7226 3.3645 10C3.3645 9.27738 3.9503 8.69159 4.6729 8.69159C5.3955 8.69159 5.9813 9.27738 5.9813 10H9.3458C9.3458 7.41923 7.2537 5.3271 4.6729 5.3271C2.0921 5.3271 0 7.41923 0 10C0 12.5808 2.0921 14.6729 4.6729 14.6729V11.3084Z" fill="black"/>
</svg>
