<svg width="150" height="150" viewBox="0 0 150 150" fill="none" xmlns="http://www.w3.org/2000/svg">
<path fill-rule="evenodd" clip-rule="evenodd" d="M9.375 84.375C4.20465 84.375 0 80.168 0 75C0 69.8317 4.20465 65.625 9.375 65.625H28.125C33.2954 65.625 37.5 69.8317 37.5 75C37.5 80.168 33.2954 84.375 28.125 84.375H9.375ZM21.9682 114.775L35.2251 101.518C38.878 97.8651 44.829 97.8651 48.4819 101.518C52.1369 105.171 52.1369 111.122 48.4819 114.775L35.225 128.032C33.4533 129.803 31.1005 130.778 28.5966 130.778C26.0925 130.778 23.7396 129.803 21.9682 128.032C18.3129 124.379 18.3129 118.428 21.9682 114.775Z" fill="#EA4335"/>
<path fill-rule="evenodd" clip-rule="evenodd" d="M84.375 140.625C84.375 145.793 80.1704 150 75 150C69.8297 150 65.625 145.793 65.625 140.625V121.875C65.625 116.707 69.8297 112.5 75 112.5C80.1704 112.5 84.375 116.707 84.375 121.875V140.625ZM114.775 128.032L101.518 114.775C97.8631 111.122 97.8631 105.171 101.518 101.518C105.171 97.8651 111.122 97.8651 114.775 101.518L128.032 114.775C129.804 116.547 130.776 118.901 130.776 121.405C130.776 123.909 129.804 126.26 128.032 128.032C124.379 131.687 118.428 131.687 114.775 128.032Z" fill="#4285F4"/>
<path fill-rule="evenodd" clip-rule="evenodd" d="M114.775 21.9679C118.428 18.315 124.379 18.315 128.032 21.9679C131.687 25.6209 131.687 31.5719 128.032 35.2248L114.775 48.4816C111.122 52.137 105.171 52.1369 101.518 48.4816C97.863 44.8287 97.863 38.8777 101.518 35.2248L114.775 21.9679ZM84.375 9.375V28.125C84.375 33.293 80.1704 37.5 75 37.5C69.8297 37.5 65.625 33.293 65.625 28.125V9.375C65.625 6.86945 66.6009 4.51589 68.3713 2.7454C70.142 0.974751 72.4947 -0.00020523 75 3.24052e-08C80.1704 3.24052e-08 84.375 4.20668 84.375 9.375Z" fill="#FBBC05"/>
<path fill-rule="evenodd" clip-rule="evenodd" d="M140.625 65.625C145.795 65.625 150 69.8317 150 75C150 80.168 145.795 84.375 140.625 84.375H121.875C116.705 84.375 112.5 80.168 112.5 75C112.5 69.8317 116.705 65.625 121.875 65.625H140.625ZM128.032 35.2248L114.775 48.4816C111.122 52.137 105.171 52.1369 101.518 48.4816C97.863 44.8287 97.863 38.8777 101.518 35.2248L114.775 21.9679C116.547 20.1962 118.897 19.2228 121.401 19.2228C123.905 19.2228 126.261 20.1962 128.032 21.9679C131.687 25.6209 131.687 31.5719 128.032 35.2248Z" fill="#34A853"/>
</svg>
