<svg width="35" height="35" viewBox="0 0 35 35" fill="none" xmlns="http://www.w3.org/2000/svg">
<path fill-rule="evenodd" clip-rule="evenodd" d="M19.7897 26.8224C19.7897 28.087 18.7645 29.1121 17.5 29.1121C16.2354 29.1121 15.2103 28.087 15.2103 26.8224C15.2103 25.5579 16.2354 24.5327 17.5 24.5327V18.6448C12.9837 18.6448 9.32242 22.306 9.32242 26.8224C9.32242 31.3388 12.9837 35 17.5 35C22.0164 35 25.6776 31.3388 25.6776 26.8224H19.7897Z" fill="#4285F4"/>
<path fill-rule="evenodd" clip-rule="evenodd" d="M26.8224 15.2103C28.087 15.2103 29.1121 16.2355 29.1121 17.5C29.1121 18.7646 28.087 19.7897 26.8224 19.7897C25.5579 19.7897 24.5327 18.7646 24.5327 17.5H18.6448C18.6448 22.0163 22.306 25.6776 26.8224 25.6776C31.3388 25.6776 35 22.0163 35 17.5C35 12.9836 31.3388 9.32242 26.8224 9.32242V15.2103Z" fill="#34A853"/>
<path fill-rule="evenodd" clip-rule="evenodd" d="M15.2103 8.17758C15.2103 6.91303 16.2355 5.88788 17.5 5.88788C18.7646 5.88788 19.7897 6.91303 19.7897 8.17758C19.7897 9.44213 18.7646 10.4673 17.5 10.4673V16.3552C22.0163 16.3552 25.6776 12.694 25.6776 8.17758C25.6776 3.66118 22.0163 0 17.5 0C12.9836 0 9.32242 3.66118 9.32242 8.17758H15.2103Z" fill="#FBBC05"/>
<path fill-rule="evenodd" clip-rule="evenodd" d="M8.17758 19.7897C6.91303 19.7897 5.88788 18.7645 5.88788 17.5C5.88788 16.2354 6.91303 15.2103 8.17758 15.2103C9.44213 15.2103 10.4673 16.2354 10.4673 17.5H16.3552C16.3552 12.9837 12.694 9.32242 8.17758 9.32242C3.66118 9.32242 0 12.9837 0 17.5C0 22.0164 3.66118 25.6776 8.17758 25.6776V19.7897Z" fill="#EA4335"/>
</svg>
