<svg width="214" height="35" viewBox="0 0 214 35" fill="none" xmlns="http://www.w3.org/2000/svg">
<path fill-rule="evenodd" clip-rule="evenodd" d="M26.8224 15.2103C28.087 15.2103 29.1121 16.2355 29.1121 17.5C29.1121 18.7646 28.087 19.7897 26.8224 19.7897C25.5579 19.7897 24.5327 18.7646 24.5327 17.5H18.6448C18.6448 22.0163 22.306 25.6776 26.8224 25.6776C31.3388 25.6776 35 22.0163 35 17.5C35 12.9836 31.3388 9.32242 26.8224 9.32242V15.2103Z" fill="#4285F4"/>
<path fill-rule="evenodd" clip-rule="evenodd" d="M15.2103 8.17758C15.2103 6.91303 16.2354 5.88788 17.5 5.88788C18.7645 5.88788 19.7897 6.91303 19.7897 8.17758C19.7897 9.44213 18.7645 10.4673 17.5 10.4673V16.3552C22.0164 16.3552 25.6776 12.694 25.6776 8.17758C25.6776 3.66118 22.0164 0 17.5 0C12.9837 0 9.32242 3.66118 9.32242 8.17758H15.2103Z" fill="#34A853"/>
<path fill-rule="evenodd" clip-rule="evenodd" d="M8.17758 19.7897C6.91299 19.7897 5.88786 18.7646 5.88786 17.5C5.88786 16.2355 6.91299 15.2103 8.17758 15.2103C9.44214 15.2103 10.4673 16.2355 10.4673 17.5H16.3551C16.3551 12.9836 12.6939 9.32242 8.17758 9.32242C3.66123 9.32242 0 12.9836 0 17.5C0 22.0163 3.66123 25.6776 8.17758 25.6776L8.17758 19.7897Z" fill="#FBBC05"/>
<path fill-rule="evenodd" clip-rule="evenodd" d="M19.7897 26.8224C19.7897 28.087 18.7645 29.1121 17.5 29.1121C16.2354 29.1121 15.2103 28.087 15.2103 26.8224C15.2103 25.5579 16.2354 24.5327 17.5 24.5327V18.6449C12.9837 18.6449 9.32242 22.3061 9.32242 26.8224C9.32242 31.3388 12.9837 35 17.5 35C22.0164 35 25.6776 31.3388 25.6776 26.8224H19.7897Z" fill="#EA4335"/>
<path d="M63.1758 18.8159H68.2856C68.1831 20.4907 67.7217 21.9775 66.9014 23.2764C66.0924 24.5752 64.9588 25.5892 63.5005 26.3184C62.0535 27.0475 60.3104 27.4121 58.271 27.4121C56.6759 27.4121 55.2461 27.1387 53.9814 26.5918C52.7168 26.0335 51.6344 25.236 50.7344 24.1992C49.8457 23.1624 49.1678 21.9092 48.7007 20.4395C48.2336 18.9697 48 17.3234 48 15.5005V13.7744C48 11.9515 48.2393 10.3052 48.7178 8.83545C49.2077 7.35433 49.9027 6.09538 50.8027 5.05859C51.7142 4.02181 52.8022 3.22428 54.0669 2.66602C55.3315 2.10775 56.7443 1.82861 58.3052 1.82861C60.3787 1.82861 62.1276 2.20459 63.5518 2.95654C64.9873 3.7085 66.0981 4.74528 66.8843 6.06689C67.6818 7.38851 68.1603 8.89242 68.3198 10.5786H63.1929C63.1359 9.57601 62.9365 8.72721 62.5947 8.03223C62.2529 7.32585 61.7345 6.79606 61.0396 6.44287C60.356 6.07829 59.4445 5.896 58.3052 5.896C57.4507 5.896 56.7044 6.0555 56.0664 6.37451C55.4284 6.69352 54.8929 7.17773 54.46 7.82715C54.027 8.47656 53.7023 9.29688 53.4858 10.2881C53.2808 11.2679 53.1782 12.4186 53.1782 13.7402V15.5005C53.1782 16.7879 53.2751 17.9215 53.4688 18.9014C53.6624 19.8698 53.9587 20.6901 54.3574 21.3623C54.7676 22.0231 55.2917 22.5244 55.9297 22.8662C56.5791 23.1966 57.3595 23.3618 58.271 23.3618C59.342 23.3618 60.2249 23.1909 60.9199 22.8491C61.6149 22.5073 62.1447 22.0003 62.5093 21.3281C62.8853 20.6559 63.1074 19.8185 63.1758 18.8159Z" fill="black"/>
<path d="M76.54 0.820312V27.0703H71.6011V0.820312H76.54Z" fill="black"/>
<path d="M79.8213 18.0127V17.6538C79.8213 16.298 80.015 15.0505 80.4023 13.9111C80.7897 12.7604 81.3537 11.7635 82.0942 10.9204C82.8348 10.0773 83.7463 9.4222 84.8286 8.95508C85.911 8.47656 87.1528 8.2373 88.5542 8.2373C89.9556 8.2373 91.2031 8.47656 92.2969 8.95508C93.3906 9.4222 94.3078 10.0773 95.0483 10.9204C95.8003 11.7635 96.37 12.7604 96.7573 13.9111C97.1447 15.0505 97.3384 16.298 97.3384 17.6538V18.0127C97.3384 19.3571 97.1447 20.6047 96.7573 21.7554C96.37 22.8947 95.8003 23.8916 95.0483 24.7461C94.3078 25.5892 93.3963 26.2443 92.314 26.7114C91.2316 27.1785 89.9897 27.4121 88.5884 27.4121C87.187 27.4121 85.9395 27.1785 84.8457 26.7114C83.7633 26.2443 82.8462 25.5892 82.0942 24.7461C81.3537 23.8916 80.7897 22.8947 80.4023 21.7554C80.015 20.6047 79.8213 19.3571 79.8213 18.0127ZM84.7432 17.6538V18.0127C84.7432 18.7874 84.8115 19.5109 84.9482 20.1831C85.085 20.8553 85.3014 21.4478 85.5977 21.9604C85.9053 22.4618 86.304 22.8548 86.7939 23.1396C87.2839 23.4245 87.882 23.5669 88.5884 23.5669C89.272 23.5669 89.8587 23.4245 90.3486 23.1396C90.8385 22.8548 91.2316 22.4618 91.5278 21.9604C91.8241 21.4478 92.0405 20.8553 92.1772 20.1831C92.3254 19.5109 92.3994 18.7874 92.3994 18.0127V17.6538C92.3994 16.9019 92.3254 16.1955 92.1772 15.5347C92.0405 14.8625 91.8184 14.27 91.5107 13.7573C91.2145 13.2332 90.8215 12.8231 90.3315 12.5269C89.8416 12.2306 89.2492 12.0825 88.5542 12.0825C87.8592 12.0825 87.2668 12.2306 86.7769 12.5269C86.2983 12.8231 85.9053 13.2332 85.5977 13.7573C85.3014 14.27 85.085 14.8625 84.9482 15.5347C84.8115 16.1955 84.7432 16.9019 84.7432 17.6538Z" fill="black"/>
<path d="M111.301 22.644V8.5791H116.223V27.0703H111.591L111.301 22.644ZM111.848 18.8501L113.3 18.8159C113.3 20.0464 113.158 21.1914 112.873 22.251C112.588 23.2992 112.161 24.2106 111.591 24.9854C111.022 25.7487 110.304 26.3468 109.438 26.7798C108.572 27.2013 107.552 27.4121 106.379 27.4121C105.479 27.4121 104.647 27.2868 103.884 27.0361C103.132 26.7741 102.482 26.3696 101.936 25.8228C101.4 25.2645 100.979 24.5524 100.671 23.6865C100.375 22.8092 100.227 21.7554 100.227 20.5249V8.5791H105.148V20.5591C105.148 21.106 105.211 21.5674 105.336 21.9434C105.473 22.3193 105.661 22.627 105.9 22.8662C106.14 23.1055 106.419 23.2764 106.738 23.3789C107.068 23.4814 107.433 23.5327 107.832 23.5327C108.846 23.5327 109.643 23.3276 110.224 22.9175C110.817 22.5073 111.232 21.9491 111.472 21.2427C111.722 20.5249 111.848 19.7274 111.848 18.8501Z" fill="black"/>
<path d="M130.903 23.0371V0.820312H135.859V27.0703H131.398L130.903 23.0371ZM119.213 18.0469V17.688C119.213 16.2752 119.373 14.9935 119.692 13.8428C120.011 12.6807 120.478 11.6838 121.093 10.8521C121.708 10.0203 122.466 9.37663 123.366 8.9209C124.266 8.46517 125.292 8.2373 126.442 8.2373C127.525 8.2373 128.47 8.46517 129.279 8.9209C130.1 9.37663 130.795 10.026 131.364 10.8691C131.945 11.7008 132.412 12.6864 132.766 13.8257C133.119 14.9536 133.375 16.1898 133.535 17.5342V18.3203C133.375 19.6077 133.119 20.804 132.766 21.9092C132.412 23.0143 131.945 23.9827 131.364 24.8145C130.795 25.6348 130.1 26.2728 129.279 26.7285C128.459 27.1842 127.502 27.4121 126.408 27.4121C125.257 27.4121 124.232 27.1785 123.332 26.7114C122.443 26.2443 121.691 25.5892 121.076 24.7461C120.472 23.903 120.011 22.9118 119.692 21.7725C119.373 20.6331 119.213 19.3913 119.213 18.0469ZM124.135 17.688V18.0469C124.135 18.8102 124.192 19.5223 124.306 20.1831C124.431 20.8439 124.631 21.4307 124.904 21.9434C125.189 22.4447 125.554 22.8377 125.998 23.1226C126.454 23.396 127.006 23.5327 127.656 23.5327C128.499 23.5327 129.194 23.3447 129.741 22.9688C130.288 22.5814 130.703 22.0516 130.988 21.3794C131.285 20.7072 131.455 19.9325 131.501 19.0552V16.8164C131.467 16.0986 131.364 15.4549 131.193 14.8853C131.034 14.3042 130.795 13.8086 130.476 13.3984C130.168 12.9883 129.781 12.6693 129.313 12.4414C128.858 12.2135 128.317 12.0996 127.69 12.0996C127.052 12.0996 126.505 12.2477 126.049 12.5439C125.594 12.8288 125.223 13.2218 124.938 13.7231C124.665 14.2244 124.46 14.8169 124.323 15.5005C124.198 16.1727 124.135 16.9019 124.135 17.688Z" fill="black"/>
<path d="M143.054 2.1875V27.0703H140.952V2.1875H143.054ZM158.435 2.1875L147.702 13.5864L142.302 18.9014L142.097 16.5601L146.438 12.0483L155.803 2.1875H158.435ZM156.691 27.0703L146.215 14.2871L147.48 12.5952L159.238 27.0703H156.691Z" fill="black"/>
<path d="M169.287 27.4121C168.079 27.4121 166.968 27.1899 165.954 26.7456C164.951 26.3013 164.074 25.6746 163.322 24.8657C162.582 24.0568 162.006 23.0998 161.596 21.9946C161.197 20.8781 160.998 19.659 160.998 18.3374V17.6025C160.998 16.1784 161.209 14.891 161.63 13.7402C162.052 12.5895 162.633 11.604 163.374 10.7837C164.114 9.96338 164.957 9.33675 165.903 8.90381C166.86 8.45947 167.862 8.2373 168.911 8.2373C170.084 8.2373 171.127 8.44808 172.038 8.86963C172.95 9.27979 173.713 9.86654 174.328 10.6299C174.955 11.3818 175.428 12.2762 175.747 13.313C176.066 14.3384 176.225 15.472 176.225 16.7139V17.9614H162.229V16.2183H174.191V15.979C174.169 14.9422 173.958 13.9738 173.559 13.0737C173.172 12.1623 172.591 11.4217 171.816 10.8521C171.041 10.2824 170.073 9.99756 168.911 9.99756C168.045 9.99756 167.247 10.1799 166.518 10.5444C165.8 10.909 165.179 11.4331 164.655 12.1167C164.143 12.7889 163.744 13.5921 163.459 14.5264C163.186 15.4492 163.049 16.4746 163.049 17.6025V18.3374C163.049 19.3628 163.197 20.3198 163.493 21.2085C163.801 22.0858 164.234 22.8605 164.792 23.5327C165.362 24.2049 166.034 24.729 166.809 25.105C167.583 25.481 168.438 25.6689 169.372 25.6689C170.466 25.6689 171.434 25.4696 172.277 25.0708C173.12 24.6606 173.878 24.0169 174.55 23.1396L175.832 24.1309C175.433 24.7233 174.932 25.2702 174.328 25.7715C173.736 26.2728 173.024 26.6715 172.192 26.9678C171.36 27.264 170.392 27.4121 169.287 27.4121Z" fill="black"/>
<path d="M187.402 27.4121C186.194 27.4121 185.083 27.1899 184.069 26.7456C183.067 26.3013 182.189 25.6746 181.438 24.8657C180.697 24.0568 180.122 23.0998 179.711 21.9946C179.313 20.8781 179.113 19.659 179.113 18.3374V17.6025C179.113 16.1784 179.324 14.891 179.746 13.7402C180.167 12.5895 180.748 11.604 181.489 10.7837C182.229 9.96338 183.072 9.33675 184.018 8.90381C184.975 8.45947 185.978 8.2373 187.026 8.2373C188.199 8.2373 189.242 8.44808 190.153 8.86963C191.065 9.27979 191.828 9.86654 192.443 10.6299C193.07 11.3818 193.543 12.2762 193.862 13.313C194.181 14.3384 194.34 15.472 194.34 16.7139V17.9614H180.344V16.2183H192.307V15.979C192.284 14.9422 192.073 13.9738 191.674 13.0737C191.287 12.1623 190.706 11.4217 189.931 10.8521C189.156 10.2824 188.188 9.99756 187.026 9.99756C186.16 9.99756 185.362 10.1799 184.633 10.5444C183.916 10.909 183.295 11.4331 182.771 12.1167C182.258 12.7889 181.859 13.5921 181.574 14.5264C181.301 15.4492 181.164 16.4746 181.164 17.6025V18.3374C181.164 19.3628 181.312 20.3198 181.608 21.2085C181.916 22.0858 182.349 22.8605 182.907 23.5327C183.477 24.2049 184.149 24.729 184.924 25.105C185.699 25.481 186.553 25.6689 187.487 25.6689C188.581 25.6689 189.549 25.4696 190.393 25.0708C191.236 24.6606 191.993 24.0169 192.666 23.1396L193.947 24.1309C193.549 24.7233 193.047 25.2702 192.443 25.7715C191.851 26.2728 191.139 26.6715 190.307 26.9678C189.475 27.264 188.507 27.4121 187.402 27.4121Z" fill="black"/>
<path d="M200.39 12.1338V34.1797H198.339V8.5791H200.253L200.39 12.1338ZM213.242 17.6538V18.0127C213.242 19.3913 213.082 20.6559 212.763 21.8066C212.444 22.9574 211.983 23.9543 211.379 24.7974C210.786 25.6291 210.052 26.2728 209.174 26.7285C208.297 27.1842 207.3 27.4121 206.184 27.4121C205.078 27.4121 204.093 27.2412 203.227 26.8994C202.361 26.5576 201.615 26.0734 200.988 25.4468C200.373 24.8088 199.877 24.0682 199.501 23.2251C199.137 22.3706 198.881 21.4364 198.732 20.4224V15.6885C198.903 14.5719 199.182 13.5579 199.57 12.6465C199.957 11.735 200.453 10.9489 201.057 10.2881C201.672 9.62728 202.401 9.12028 203.244 8.76709C204.087 8.4139 205.05 8.2373 206.132 8.2373C207.26 8.2373 208.263 8.45947 209.14 8.90381C210.029 9.33675 210.775 9.96908 211.379 10.8008C211.994 11.6211 212.456 12.6123 212.763 13.7744C213.082 14.9251 213.242 16.2183 213.242 17.6538ZM211.191 18.0127V17.6538C211.191 16.5715 211.077 15.5688 210.849 14.646C210.633 13.7231 210.297 12.9199 209.841 12.2363C209.396 11.5413 208.827 11.0002 208.132 10.6128C207.448 10.2254 206.634 10.0317 205.688 10.0317C204.708 10.0317 203.871 10.1969 203.176 10.5273C202.492 10.8464 201.923 11.2736 201.467 11.8091C201.011 12.3332 200.652 12.9085 200.39 13.5352C200.128 14.1618 199.934 14.777 199.809 15.3809V20.8325C200.026 21.6984 200.373 22.5016 200.852 23.2422C201.33 23.9714 201.968 24.5581 202.766 25.0024C203.575 25.4354 204.56 25.6519 205.722 25.6519C206.656 25.6519 207.465 25.4582 208.149 25.0708C208.833 24.6834 209.396 24.1423 209.841 23.4473C210.297 22.7523 210.633 21.9434 210.849 21.0205C211.077 20.0977 211.191 19.0951 211.191 18.0127Z" fill="black"/>
</svg>
